<?xml version="1.0" encoding="UTF-8"?>
<svg version="1.1" xmlns="http://www.w3.org/2000/svg" width="500" height="500">
<path d="M0 0 C1.22847656 0.3403125 2.45695313 0.680625 3.72265625 1.03125 C24.97229966 7.53579441 42.41287325 19.2912888 58 35 C58.75539063 35.74636719 59.51078125 36.49273437 60.2890625 37.26171875 C65.63485292 42.81311649 69.9000291 48.57645214 73.9375 55.125 C74.62803467 56.23427856 74.62803467 56.23427856 75.33251953 57.3659668 C78.01686395 61.84930859 79.83996826 66.07607074 81.13110352 71.14794922 C82.27766682 73.59184617 83.57062083 73.95938543 86 75 C87.59765625 76.84765625 87.59765625 76.84765625 89.0625 79.0625 C89.54847656 79.77535156 90.03445313 80.48820312 90.53515625 81.22265625 C95.67246597 90.96299547 95.39484237 100.23918855 95.29296875 110.94140625 C95.28736515 112.67731864 95.28309867 114.41323581 95.28010559 116.14915466 C95.26871691 120.69151179 95.23930203 125.23357565 95.20599365 129.77581787 C95.17516307 134.42146845 95.16157264 139.06716697 95.14648438 143.71289062 C95.11442591 152.80872175 95.06330289 161.90433637 95 171 C93.95335175 171.03493561 92.90670349 171.06987122 91.82833862 171.10586548 C90.45046342 171.16955217 89.07262691 171.23407982 87.69482422 171.29931641 C87.00551315 171.32010757 86.31620209 171.34089874 85.60600281 171.36231995 C81.51845381 171.57521291 81.51845381 171.57521291 78.01942444 173.52381897 C76.74409464 175.41684197 75.93127337 177.24032057 75.125 179.375 C74.43705195 180.8491277 73.74034073 182.31919586 73.03515625 183.78515625 C72.7014502 184.50719238 72.36774414 185.22922852 72.02392578 185.97314453 C69.52894425 190.9119468 65.65282552 194.89836315 62 199 C61.26523437 199.88945312 60.53046875 200.77890625 59.7734375 201.6953125 C41.03370852 223.69412478 12.44253074 237.44233815 -16 241 C-52.50305499 242.78525501 -85.29241264 235.18370981 -112.95458984 210.23730469 C-130.97869508 193.57794894 -143.4211298 173.72380468 -150 150 C-150.3196875 148.8759375 -150.639375 147.751875 -150.96875 146.59375 C-158.15297781 115.9942612 -152.50392739 82.70997244 -136.5 55.875 C-117.65682697 25.64889881 -89.45766383 6.20244085 -54.9375 -1.8125 C-37.49236964 -5.13986025 -17.13553144 -4.82362293 0 0 Z M-82 179 C-82.495 186.425 -82.495 186.425 -83 194 C-82.01 194 -81.02 194 -80 194 C-79.67 191.36 -79.34 188.72 -79 186 C-78.01 188.31 -77.02 190.62 -76 193 C-75.34 193 -74.68 193 -74 193 C-73.01 190.69 -72.02 188.38 -71 186 C-70.67 188.31 -70.34 190.62 -70 193 C-69.01 193.33 -68.02 193.66 -67 194 C-67.33 189.05 -67.66 184.1 -68 179 C-69.32 179.33 -70.64 179.66 -72 180 C-72.66 182.31 -73.32 184.62 -74 187 C-74.66 187 -75.32 187 -76 187 C-76.66 184.36 -77.32 181.72 -78 179 C-79.32 179 -80.64 179 -82 179 Z M-60 179 C-62.63365987 183.9221313 -64.64475824 188.57903298 -66 194 C-65.01 194 -64.02 194 -63 194 C-62.67 193.01 -62.34 192.02 -62 191 C-59.125 190.8125 -59.125 190.8125 -56 191 C-55.01 192.485 -55.01 192.485 -54 194 C-53.34 194 -52.68 194 -52 194 C-54.18613142 186.39182154 -54.18613142 186.39182154 -57 179 C-57.99 179 -58.98 179 -60 179 Z M-50 179 C-50 183.95 -50 188.9 -50 194 C-49.01 194 -48.02 194 -47 194 C-47 191.69 -47 189.38 -47 187 C-45.35 187.33 -43.7 187.66 -42 188 C-41.67 189.98 -41.34 191.96 -41 194 C-40.34 194 -39.68 194 -39 194 C-39 189.05 -39 184.1 -39 179 C-39.66 179 -40.32 179 -41 179 C-41 180.98 -41 182.96 -41 185 C-42.98 185 -44.96 185 -47 185 C-47 183.02 -47 181.04 -47 179 C-47.99 179 -48.98 179 -50 179 Z M-31 179 C-33.63365987 183.9221313 -35.64475824 188.57903298 -37 194 C-36.01 194 -35.02 194 -34 194 C-33.67 193.01 -33.34 192.02 -33 191 C-30.125 190.8125 -30.125 190.8125 -27 191 C-26.01 192.485 -26.01 192.485 -25 194 C-24.34 194 -23.68 194 -23 194 C-25.18613142 186.39182154 -25.18613142 186.39182154 -28 179 C-28.99 179 -29.98 179 -31 179 Z M-21 179 C-21 183.95 -21 188.9 -21 194 C-20.34 194 -19.68 194 -19 194 C-19 192.02 -19 190.04 -19 188 C-18.2575 188.804375 -17.515 189.60875 -16.75 190.4375 C-14.24695171 192.76988591 -13.2819045 193.63534394 -10 194 C-10.515625 193.360625 -11.03125 192.72125 -11.5625 192.0625 C-13.55421636 187.81927818 -12.81519577 184.50813085 -12 180 C-14.67082039 178.47825081 -14.67082039 178.47825081 -21 179 Z M-4 179 C-4.83739781 181.1234016 -5.66980283 183.2487728 -6.5 185.375 C-6.9640625 186.55835938 -7.428125 187.74171875 -7.90625 188.9609375 C-9.11287794 191.7753244 -9.11287794 191.7753244 -9 194 C-8.01 194 -7.02 194 -6 194 C-5.67 193.01 -5.34 192.02 -5 191 C-2.125 190.8125 -2.125 190.8125 1 191 C1.99 192.485 1.99 192.485 3 194 C3.66 194 4.32 194 5 194 C2.81386858 186.39182154 2.81386858 186.39182154 0 179 C-1.32 179 -2.64 179 -4 179 Z M7 179 C7 179.66 7 180.32 7 181 C8.98 181 10.96 181 13 181 C12.3503125 182.15628906 12.3503125 182.15628906 11.6875 183.3359375 C11.130625 184.33882812 10.57375 185.34171875 10 186.375 C9.443125 187.37273437 8.88625 188.37046875 8.3125 189.3984375 C6.84985732 191.81195509 6.84985732 191.81195509 7 194 C10.63 194 14.26 194 18 194 C18 193.01 18 192.02 18 191 C16.02 191 14.04 191 12 191 C12.433125 190.30132812 12.86625 189.60265625 13.3125 188.8828125 C13.869375 187.97273437 14.42625 187.06265625 15 186.125 C15.556875 185.22007812 16.11375 184.31515625 16.6875 183.3828125 C18.16082329 181.16142533 18.16082329 181.16142533 18 179 C14.37 179 10.74 179 7 179 Z " fill="#FE5B3D" transform="translate(281,131)"/>
<path d="M0 0 C4.71275988 3.47223986 8.74679293 7.12018939 12 12 C15.01834386 10.67218779 16.75724712 9.31373786 18.875 6.8125 C25.26211408 0.16041831 36.14968063 -5.03982201 45.34326172 -5.29248047 C57.99809421 -5.41345229 70.47346662 -2.38054458 79.8125 6.77734375 C88.49101379 17.38682686 88.55656358 29.14532158 88.390625 42.13671875 C88.38314976 43.86976972 88.37746291 45.60282923 88.37347412 47.33589172 C88.35831858 51.86188759 88.3191259 56.38735687 88.2746582 60.91314697 C88.22622668 66.3622932 88.20812337 71.81161708 88.18484497 77.26091766 C88.14626691 85.50764288 88.06954421 93.75321634 88 102 C76.12 102 64.24 102 52 102 C51.96132813 95.20921875 51.96132813 95.20921875 51.921875 88.28125 C51.89668719 85.40098625 51.87033973 82.52082552 51.83984375 79.640625 C51.79162416 75.07616888 51.74753659 70.51195142 51.72900391 65.94726562 C51.71378019 62.2640966 51.67923545 58.58155495 51.63169098 54.89866638 C51.61693561 53.49862646 51.60896236 52.09849694 51.60811615 50.69837952 C51.59848956 42.75193882 51.4343757 36.73405883 47 30 C42.65480567 25.96517669 40.05114882 24.83676176 34.1875 24.75 C33.14980469 24.72421875 32.11210937 24.6984375 31.04296875 24.671875 C26.36537492 25.17626252 23.84887419 27.05680646 20.75 30.5 C17.94546529 34.50647815 17.85840767 37.619425 17.79467773 42.39916992 C17.78477814 43.04334366 17.77487854 43.6875174 17.76467896 44.35121155 C17.73312533 46.4775934 17.70833095 48.60399758 17.68359375 50.73046875 C17.66301891 52.20592322 17.6420223 53.68137186 17.62062073 55.15681458 C17.56545474 59.03819051 17.51602138 62.91961915 17.46777344 66.80108643 C17.40868098 71.45926422 17.34248314 76.11734578 17.27747345 80.77544403 C17.17953277 87.85023719 17.09062978 94.92509238 17 102 C5.12 102 -6.76 102 -19 102 C-19.02578125 97.400625 -19.0515625 92.80125 -19.078125 88.0625 C-19.10331219 85.13666417 -19.1296592 82.21092981 -19.16015625 79.28515625 C-19.20837962 74.64827176 -19.25246581 70.01162235 -19.27099609 65.37451172 C-19.28621752 61.63299259 -19.32075837 57.89209135 -19.36830902 54.15084839 C-19.38306672 52.72847892 -19.39103778 51.30602121 -19.39188385 49.88357544 C-19.40142855 41.87796679 -19.54630233 35.79412934 -24 29 C-28.61045258 24.53362407 -34.17099814 24.64057055 -40.30859375 24.73046875 C-44.24744661 25.12492571 -46.17525763 26.24415379 -49 29 C-53.84056897 36.34216076 -53.60427311 43.42250899 -53.609375 52 C-53.62437684 53.44590082 -53.64110817 54.89178462 -53.65948486 56.33764648 C-53.70294662 60.11872194 -53.7231099 63.89956632 -53.73822021 67.68084717 C-53.7613309 72.23077744 -53.81373579 76.78045561 -53.86116028 81.33018494 C-53.92973409 88.22018863 -53.96137596 95.10947045 -54 102 C-65.88 102 -77.76 102 -90 102 C-90 67.68 -90 33.36 -90 -2 C-78.12 -2 -66.24 -2 -54 -2 C-53.505 2.95 -53.505 2.95 -53 8 C-52.38253906 7.46890625 -51.76507813 6.9378125 -51.12890625 6.390625 C-36.08085691 -6.16086821 -17.84484244 -9.34116301 0 0 Z " fill="#030000" transform="translate(288,200)"/>
<path d="M0 0 C4.90260302 1.76407128 7.47257763 5.17066672 9.89453125 9.57421875 C11.00429166 12.90349999 11.0148402 15.37449232 11.00805664 18.8815918 C11.00798111 20.18271408 11.00790558 21.48383636 11.00782776 22.8243866 C11.0027211 24.24490395 10.9975051 25.66542092 10.9921875 27.0859375 C10.99032216 28.53896537 10.98889881 29.99199386 10.98789978 31.44502258 C10.98408371 35.26728047 10.97426118 39.0895003 10.9631958 42.91174316 C10.95116249 47.4989366 10.9465751 52.08614277 10.94074249 56.67334747 C10.93104895 63.64033103 10.91188605 70.60723108 10.89453125 77.57421875 C22.77453125 77.57421875 34.65453125 77.57421875 46.89453125 77.57421875 C46.848125 72.89105469 46.80171875 68.20789063 46.75390625 63.3828125 C46.73345572 60.40687872 46.71419925 57.43103221 46.69921875 54.45507812 C46.67535425 49.73671359 46.64719494 45.01866105 46.59277344 40.30053711 C46.54914914 36.49444738 46.52535944 32.68869245 46.51502228 28.8823719 C46.50766046 27.43394771 46.49328453 25.98554079 46.47161102 24.53726006 C46.33835671 15.25958416 46.69944684 9.40492201 52.95703125 2.19921875 C56.2006214 -0.5212117 59.01440583 -0.54110755 63.08203125 -0.48828125 C63.98308594 -0.47925781 64.88414062 -0.47023437 65.8125 -0.4609375 C66.49957031 -0.44933594 67.18664062 -0.43773437 67.89453125 -0.42578125 C67.56453125 0.56421875 67.23453125 1.55421875 66.89453125 2.57421875 C66.35828125 2.30609375 65.82203125 2.03796875 65.26953125 1.76171875 C61.46245096 1.46115978 59.68780315 4.19696607 56.89453125 6.57421875 C55.90453125 6.24421875 54.91453125 5.91421875 53.89453125 5.57421875 C53.56453125 6.23421875 53.23453125 6.89421875 52.89453125 7.57421875 C52.56453125 7.90421875 52.23453125 8.23421875 51.89453125 8.57421875 C52.88453125 9.56421875 52.88453125 9.56421875 53.89453125 10.57421875 C53.51953125 13.19921875 53.51953125 13.19921875 52.89453125 15.57421875 C51.40953125 16.06921875 51.40953125 16.06921875 49.89453125 16.57421875 C49.56453125 34.72421875 49.23453125 52.87421875 48.89453125 71.57421875 C50.37953125 72.06921875 50.37953125 72.06921875 51.89453125 72.57421875 C53.08203125 74.63671875 53.08203125 74.63671875 53.89453125 76.57421875 C53.09015625 76.69796875 52.28578125 76.82171875 51.45703125 76.94921875 C50.18859375 77.25859375 50.18859375 77.25859375 48.89453125 77.57421875 C48.56453125 78.23421875 48.23453125 78.89421875 47.89453125 79.57421875 C46.40953125 80.06921875 46.40953125 80.06921875 44.89453125 80.57421875 C44.56453125 81.23421875 44.23453125 81.89421875 43.89453125 82.57421875 C44.55453125 82.57421875 45.21453125 82.57421875 45.89453125 82.57421875 C45.89453125 83.89421875 45.89453125 85.21421875 45.89453125 86.57421875 C44.90453125 86.57421875 43.91453125 86.57421875 42.89453125 86.57421875 C42.89453125 87.56421875 42.89453125 88.55421875 42.89453125 89.57421875 C44.37953125 90.06921875 44.37953125 90.06921875 45.89453125 90.57421875 C44.57453125 90.90421875 43.25453125 91.23421875 41.89453125 91.57421875 C41.89453125 92.23421875 41.89453125 92.89421875 41.89453125 93.57421875 C42.55453125 93.57421875 43.21453125 93.57421875 43.89453125 93.57421875 C45.53559789 96.75378537 45.89453125 98.00107183 45.89453125 101.57421875 C44.57453125 101.57421875 43.25453125 101.57421875 41.89453125 101.57421875 C40.12043317 103.49444578 40.12043317 103.49444578 38.89453125 105.57421875 C38.89453125 104.58421875 38.89453125 103.59421875 38.89453125 102.57421875 C38.15203125 102.75984375 37.40953125 102.94546875 36.64453125 103.13671875 C33.94462162 103.56624983 32.44822048 103.42544849 29.89453125 102.57421875 C29.89453125 103.23421875 29.89453125 103.89421875 29.89453125 104.57421875 C29.23453125 104.57421875 28.57453125 104.57421875 27.89453125 104.57421875 C27.89453125 103.91421875 27.89453125 103.25421875 27.89453125 102.57421875 C26.76015625 102.28546875 25.62578125 101.99671875 24.45703125 101.69921875 C23.28140625 101.32796875 22.10578125 100.95671875 20.89453125 100.57421875 C20.56453125 99.91421875 20.23453125 99.25421875 19.89453125 98.57421875 C19.23453125 98.57421875 18.57453125 98.57421875 17.89453125 98.57421875 C17.89453125 99.89421875 17.89453125 101.21421875 17.89453125 102.57421875 C17.146875 102.55101562 16.39921875 102.5278125 15.62890625 102.50390625 C14.6440625 102.48585938 13.65921875 102.4678125 12.64453125 102.44921875 C11.67 102.42601562 10.69546875 102.4028125 9.69140625 102.37890625 C6.83997302 102.57802868 5.36678944 103.24424037 2.89453125 104.57421875 C0.33203125 104.19921875 0.33203125 104.19921875 -2.10546875 103.57421875 C-3.09546875 103.57421875 -4.08546875 103.57421875 -5.10546875 103.57421875 C-5.10546875 102.58421875 -5.10546875 101.59421875 -5.10546875 100.57421875 C-8.05276412 99.41610487 -8.05276412 99.41610487 -11.10546875 99.57421875 C-10.77546875 98.58421875 -10.44546875 97.59421875 -10.10546875 96.57421875 C-7.35546875 96.32421875 -7.35546875 96.32421875 -4.10546875 96.57421875 C-1.90234375 98.58984375 -1.90234375 98.58984375 -0.10546875 100.57421875 C-0.46640625 99.74277344 -0.82734375 98.91132813 -1.19921875 98.0546875 C-1.66328125 96.96800781 -2.12734375 95.88132812 -2.60546875 94.76171875 C-3.06953125 93.68277344 -3.53359375 92.60382813 -4.01171875 91.4921875 C-5.10546875 88.57421875 -5.10546875 88.57421875 -5.10546875 85.57421875 C-8.42719992 86.29115033 -8.42719992 86.29115033 -9.7109375 89.734375 C-10.24937149 91.03060497 -10.77630304 92.33165943 -11.29296875 93.63671875 C-11.70192383 94.63155273 -11.70192383 94.63155273 -12.11914062 95.64648438 C-12.79107735 97.28506692 -13.44956503 98.92915278 -14.10546875 100.57421875 C-13.44546875 100.90421875 -12.78546875 101.23421875 -12.10546875 101.57421875 C-14.08546875 101.57421875 -16.06546875 101.57421875 -18.10546875 101.57421875 C-17.11546875 101.07921875 -17.11546875 101.07921875 -16.10546875 100.57421875 C-16.10546875 95.62421875 -16.10546875 90.67421875 -16.10546875 85.57421875 C-17.09546875 85.24421875 -18.08546875 84.91421875 -19.10546875 84.57421875 C-19.10546875 82.92421875 -19.10546875 81.27421875 -19.10546875 79.57421875 C-20.09546875 79.57421875 -21.08546875 79.57421875 -22.10546875 79.57421875 C-22.10546875 80.89421875 -22.10546875 82.21421875 -22.10546875 83.57421875 C-23.09546875 83.24421875 -24.08546875 82.91421875 -25.10546875 82.57421875 C-25.06732812 73.58525299 -25.00784565 64.5967496 -24.92156601 55.60811615 C-24.88215797 51.43371574 -24.84993704 47.25952416 -24.83447266 43.08496094 C-24.81926171 39.05168937 -24.78473864 35.01899218 -24.73715973 30.98597717 C-24.72239141 29.45196034 -24.71443036 27.91786149 -24.7135849 26.3837738 C-24.69699773 11.369766 -24.69699773 11.369766 -20.10546875 4.57421875 C-14.0493428 -1.04932677 -8.04266281 -1.6264383 0 0 Z M1.89453125 85.57421875 C1.89453125 90.52421875 1.89453125 95.47421875 1.89453125 100.57421875 C2.55453125 100.57421875 3.21453125 100.57421875 3.89453125 100.57421875 C3.89453125 98.59421875 3.89453125 96.61421875 3.89453125 94.57421875 C4.63703125 95.37859375 5.37953125 96.18296875 6.14453125 97.01171875 C8.64757954 99.34410466 9.61262675 100.20956269 12.89453125 100.57421875 C12.37890625 99.93484375 11.86328125 99.29546875 11.33203125 98.63671875 C9.34031489 94.39349693 10.07933548 91.0823496 10.89453125 86.57421875 C8.22371086 85.05246956 8.22371086 85.05246956 1.89453125 85.57421875 Z M18.89453125 85.57421875 C18.05713344 87.69762035 17.22472842 89.82299155 16.39453125 91.94921875 C15.93046875 93.13257813 15.46640625 94.3159375 14.98828125 95.53515625 C13.78165331 98.34954315 13.78165331 98.34954315 13.89453125 100.57421875 C14.88453125 100.57421875 15.87453125 100.57421875 16.89453125 100.57421875 C17.22453125 99.58421875 17.55453125 98.59421875 17.89453125 97.57421875 C20.76953125 97.38671875 20.76953125 97.38671875 23.89453125 97.57421875 C24.88453125 99.05921875 24.88453125 99.05921875 25.89453125 100.57421875 C26.55453125 100.57421875 27.21453125 100.57421875 27.89453125 100.57421875 C25.70839983 92.96604029 25.70839983 92.96604029 22.89453125 85.57421875 C21.57453125 85.57421875 20.25453125 85.57421875 18.89453125 85.57421875 Z M29.89453125 85.57421875 C29.89453125 86.23421875 29.89453125 86.89421875 29.89453125 87.57421875 C31.87453125 87.57421875 33.85453125 87.57421875 35.89453125 87.57421875 C35.24484375 88.73050781 35.24484375 88.73050781 34.58203125 89.91015625 C34.02515625 90.91304688 33.46828125 91.9159375 32.89453125 92.94921875 C32.33765625 93.94695312 31.78078125 94.9446875 31.20703125 95.97265625 C29.74438857 98.38617384 29.74438857 98.38617384 29.89453125 100.57421875 C33.52453125 100.57421875 37.15453125 100.57421875 40.89453125 100.57421875 C40.89453125 99.58421875 40.89453125 98.59421875 40.89453125 97.57421875 C38.91453125 97.57421875 36.93453125 97.57421875 34.89453125 97.57421875 C35.32765625 96.87554687 35.76078125 96.176875 36.20703125 95.45703125 C36.76390625 94.54695313 37.32078125 93.636875 37.89453125 92.69921875 C38.45140625 91.79429687 39.00828125 90.889375 39.58203125 89.95703125 C41.05535454 87.73564408 41.05535454 87.73564408 40.89453125 85.57421875 C37.26453125 85.57421875 33.63453125 85.57421875 29.89453125 85.57421875 Z " fill="#FA603F" transform="translate(258.10546875,224.42578125)"/>
<path d="M0 0 C0.90105469 0.00902344 1.80210937 0.01804688 2.73046875 0.02734375 C3.41753906 0.03894531 4.10460937 0.05054688 4.8125 0.0625 C4.4825 1.0525 4.1525 2.0425 3.8125 3.0625 C3.27625 2.794375 2.74 2.52625 2.1875 2.25 C-1.61958029 1.94944103 -3.3942281 4.68524732 -6.1875 7.0625 C-7.1775 6.7325 -8.1675 6.4025 -9.1875 6.0625 C-9.5175 6.7225 -9.8475 7.3825 -10.1875 8.0625 C-10.5175 8.3925 -10.8475 8.7225 -11.1875 9.0625 C-10.1975 10.0525 -10.1975 10.0525 -9.1875 11.0625 C-9.5625 13.6875 -9.5625 13.6875 -10.1875 16.0625 C-11.6725 16.5575 -11.6725 16.5575 -13.1875 17.0625 C-13.5175 35.2125 -13.8475 53.3625 -14.1875 72.0625 C-12.7025 72.5575 -12.7025 72.5575 -11.1875 73.0625 C-10 75.125 -10 75.125 -9.1875 77.0625 C-9.991875 77.18625 -10.79625 77.31 -11.625 77.4375 C-12.8934375 77.746875 -12.8934375 77.746875 -14.1875 78.0625 C-14.5175 78.7225 -14.8475 79.3825 -15.1875 80.0625 C-16.6725 80.5575 -16.6725 80.5575 -18.1875 81.0625 C-18.5175 81.7225 -18.8475 82.3825 -19.1875 83.0625 C-18.5275 83.0625 -17.8675 83.0625 -17.1875 83.0625 C-17.1875 84.3825 -17.1875 85.7025 -17.1875 87.0625 C-18.1775 87.0625 -19.1675 87.0625 -20.1875 87.0625 C-20.1875 88.0525 -20.1875 89.0425 -20.1875 90.0625 C-19.1975 90.3925 -18.2075 90.7225 -17.1875 91.0625 C-19.1675 91.5575 -19.1675 91.5575 -21.1875 92.0625 C-21.1875 92.7225 -21.1875 93.3825 -21.1875 94.0625 C-20.5275 94.0625 -19.8675 94.0625 -19.1875 94.0625 C-17.54643336 97.24206662 -17.1875 98.48935308 -17.1875 102.0625 C-18.5075 102.0625 -19.8275 102.0625 -21.1875 102.0625 C-22.96159808 103.98272703 -22.96159808 103.98272703 -24.1875 106.0625 C-24.1875 105.0725 -24.1875 104.0825 -24.1875 103.0625 C-24.93 103.248125 -25.6725 103.43375 -26.4375 103.625 C-29.13740963 104.05453108 -30.63381077 103.91372974 -33.1875 103.0625 C-33.1875 103.7225 -33.1875 104.3825 -33.1875 105.0625 C-33.8475 105.0625 -34.5075 105.0625 -35.1875 105.0625 C-35.1875 104.4025 -35.1875 103.7425 -35.1875 103.0625 C-36.321875 102.77375 -37.45625 102.485 -38.625 102.1875 C-39.800625 101.81625 -40.97625 101.445 -42.1875 101.0625 C-42.5175 100.4025 -42.8475 99.7425 -43.1875 99.0625 C-43.8475 99.0625 -44.5075 99.0625 -45.1875 99.0625 C-45.1875 100.3825 -45.1875 101.7025 -45.1875 103.0625 C-45.93515625 103.03929687 -46.6828125 103.01609375 -47.453125 102.9921875 C-48.43796875 102.97414063 -49.4228125 102.95609375 -50.4375 102.9375 C-51.41203125 102.91429687 -52.3865625 102.89109375 -53.390625 102.8671875 C-56.24205823 103.06630993 -57.71524181 103.73252162 -60.1875 105.0625 C-62.75 104.6875 -62.75 104.6875 -65.1875 104.0625 C-66.1775 104.0625 -67.1675 104.0625 -68.1875 104.0625 C-68.1875 103.0725 -68.1875 102.0825 -68.1875 101.0625 C-71.13479537 99.90438612 -71.13479537 99.90438612 -74.1875 100.0625 C-73.8575 99.0725 -73.5275 98.0825 -73.1875 97.0625 C-70.4375 96.8125 -70.4375 96.8125 -67.1875 97.0625 C-64.984375 99.078125 -64.984375 99.078125 -63.1875 101.0625 C-63.5484375 100.23105469 -63.909375 99.39960938 -64.28125 98.54296875 C-64.7453125 97.45628906 -65.209375 96.36960937 -65.6875 95.25 C-66.1515625 94.17105469 -66.615625 93.09210938 -67.09375 91.98046875 C-68.1875 89.0625 -68.1875 89.0625 -68.1875 86.0625 C-71.50923117 86.77943158 -71.50923117 86.77943158 -72.79296875 90.22265625 C-73.33140274 91.51888622 -73.85833429 92.81994068 -74.375 94.125 C-74.64763672 94.78822266 -74.92027344 95.45144531 -75.20117188 96.13476562 C-75.8731086 97.77334817 -76.53159628 99.41743403 -77.1875 101.0625 C-76.5275 101.3925 -75.8675 101.7225 -75.1875 102.0625 C-77.1675 102.0625 -79.1475 102.0625 -81.1875 102.0625 C-80.1975 101.5675 -80.1975 101.5675 -79.1875 101.0625 C-79.1875 96.1125 -79.1875 91.1625 -79.1875 86.0625 C-78.8575 86.0625 -78.5275 86.0625 -78.1875 86.0625 C-77.8575 89.3625 -77.5275 92.6625 -77.1875 96.0625 C-76.8575 94.4125 -76.5275 92.7625 -76.1875 91.0625 C-75.5275 91.0625 -74.8675 91.0625 -74.1875 91.0625 C-74.043125 90.258125 -73.89875 89.45375 -73.75 88.625 C-73.1875 86.0625 -73.1875 86.0625 -72.1875 85.0625 C-70.52132885 85.02186168 -68.85361905 85.019779 -67.1875 85.0625 C-66.8575 86.7125 -66.5275 88.3625 -66.1875 90.0625 C-65.1975 90.0625 -64.2075 90.0625 -63.1875 90.0625 C-63.435 89.32 -63.6825 88.5775 -63.9375 87.8125 C-64.02 86.905 -64.1025 85.9975 -64.1875 85.0625 C-62.25 82.75 -62.25 82.75 -60.1875 81.0625 C-58.7025 82.0525 -58.7025 82.0525 -57.1875 83.0625 C-57.1875 83.7225 -57.1875 84.3825 -57.1875 85.0625 C-54.7125 84.5675 -54.7125 84.5675 -52.1875 84.0625 C-53.5075 83.7325 -54.8275 83.4025 -56.1875 83.0625 C-55.5275 82.0725 -54.8675 81.0825 -54.1875 80.0625 C-54.1875 79.4025 -54.1875 78.7425 -54.1875 78.0625 C-54.1875 56.0625 -54.1875 34.0625 -54.1875 12.0625 C-53.5275 12.3925 -52.8675 12.7225 -52.1875 13.0625 C-52.1875 34.5125 -52.1875 55.9625 -52.1875 78.0625 C-40.3075 78.0625 -28.4275 78.0625 -16.1875 78.0625 C-16.23390625 73.37933594 -16.2803125 68.69617188 -16.328125 63.87109375 C-16.34857553 60.89515997 -16.367832 57.91931346 -16.3828125 54.94335938 C-16.406677 50.22499484 -16.43483631 45.5069423 -16.48925781 40.78881836 C-16.53288211 36.98272863 -16.55667181 33.1769737 -16.56700897 29.37065315 C-16.57437079 27.92222896 -16.58874672 26.47382204 -16.61042023 25.02554131 C-16.74367454 15.74786541 -16.38258441 9.89320326 -10.125 2.6875 C-6.88140985 -0.03293045 -4.06762542 -0.0528263 0 0 Z M-61.1875 86.0625 C-61.1875 91.0125 -61.1875 95.9625 -61.1875 101.0625 C-60.5275 101.0625 -59.8675 101.0625 -59.1875 101.0625 C-59.1875 99.0825 -59.1875 97.1025 -59.1875 95.0625 C-58.445 95.866875 -57.7025 96.67125 -56.9375 97.5 C-54.43445171 99.83238591 -53.4694045 100.69784394 -50.1875 101.0625 C-50.703125 100.423125 -51.21875 99.78375 -51.75 99.125 C-53.74171636 94.88177818 -53.00269577 91.57063085 -52.1875 87.0625 C-54.85832039 85.54075081 -54.85832039 85.54075081 -61.1875 86.0625 Z M-44.1875 86.0625 C-45.02489781 88.1859016 -45.85730283 90.3112728 -46.6875 92.4375 C-47.1515625 93.62085938 -47.615625 94.80421875 -48.09375 96.0234375 C-49.30037794 98.8378244 -49.30037794 98.8378244 -49.1875 101.0625 C-48.1975 101.0625 -47.2075 101.0625 -46.1875 101.0625 C-45.8575 100.0725 -45.5275 99.0825 -45.1875 98.0625 C-42.3125 97.875 -42.3125 97.875 -39.1875 98.0625 C-38.1975 99.5475 -38.1975 99.5475 -37.1875 101.0625 C-36.5275 101.0625 -35.8675 101.0625 -35.1875 101.0625 C-37.37363142 93.45432154 -37.37363142 93.45432154 -40.1875 86.0625 C-41.5075 86.0625 -42.8275 86.0625 -44.1875 86.0625 Z M-33.1875 86.0625 C-33.1875 86.7225 -33.1875 87.3825 -33.1875 88.0625 C-31.2075 88.0625 -29.2275 88.0625 -27.1875 88.0625 C-27.8371875 89.21878906 -27.8371875 89.21878906 -28.5 90.3984375 C-29.056875 91.40132813 -29.61375 92.40421875 -30.1875 93.4375 C-30.744375 94.43523437 -31.30125 95.43296875 -31.875 96.4609375 C-33.33764268 98.87445509 -33.33764268 98.87445509 -33.1875 101.0625 C-29.5575 101.0625 -25.9275 101.0625 -22.1875 101.0625 C-22.1875 100.0725 -22.1875 99.0825 -22.1875 98.0625 C-24.1675 98.0625 -26.1475 98.0625 -28.1875 98.0625 C-27.754375 97.36382812 -27.32125 96.66515625 -26.875 95.9453125 C-26.318125 95.03523438 -25.76125 94.12515625 -25.1875 93.1875 C-24.630625 92.28257812 -24.07375 91.37765625 -23.5 90.4453125 C-22.02667671 88.22392533 -22.02667671 88.22392533 -22.1875 86.0625 C-25.8175 86.0625 -29.4475 86.0625 -33.1875 86.0625 Z " fill="#EC6C4D" transform="translate(321.1875,223.9375)"/>
<path d="M0 0 C11.55 0 23.1 0 35 0 C35 1.65 35 3.3 35 5 C35.66 5.33 36.32 5.66 37 6 C37 4.68 37 3.36 37 2 C37.99 2 38.98 2 40 2 C40.98248524 6.0527516 41.08159574 9.83861737 41 14 C39.02 14 37.04 14 35 14 C35 12.02 35 10.04 35 8 C34.01 8 33.02 8 32 8 C32 12.62 32 17.24 32 22 C29 21 29 21 27.83203125 18.8203125 C27.49558594 17.93085938 27.15914062 17.04140625 26.8125 16.125 C26.46832031 15.24070312 26.12414062 14.35640625 25.76953125 13.4453125 C25 11 25 11 25 8 C24.01 8.33 23.02 8.66 22 9 C20.80135872 11.52268786 19.77593379 13.9529028 18.8125 16.5625 C18.40354492 17.62887695 18.40354492 17.62887695 17.98632812 18.71679688 C17.31409927 20.4740267 16.65572508 22.23654518 16 24 C14.60007813 23.73896484 14.60007813 23.73896484 13.171875 23.47265625 C10.03320749 23.00494841 8.03975036 23.24006241 5 24 C2.66666667 24 0.33333333 24 -2 24 C-2 19.05 -2 14.1 -2 9 C-1.34 8.67 -0.68 8.34 0 8 C0.10251672 13.12583611 0.03590199 17.94997778 -1 23 C-0.01 23 0.98 23 2 23 C2 20.03 2 17.06 2 14 C5.08669204 17.08669204 5.44855089 17.91927658 6 22 C6.66 22 7.32 22 8 22 C8.433125 20.2984375 8.433125 20.2984375 8.875 18.5625 C9.24625 17.386875 9.6175 16.21125 10 15 C10.66 14.67 11.32 14.34 12 14 C12.1953125 16.05078125 12.390625 18.1015625 12.5859375 20.15234375 C12.72257813 20.76207031 12.85921875 21.37179687 13 22 C13.66 22.33 14.32 22.66 15 23 C14.7525 21.515 14.7525 21.515 14.5 20 C13.91525483 15.97267058 13.92867976 12.06525377 14 8 C13.01 8.33 12.02 8.66 11 9 C9.28432339 12.50294871 9.28432339 12.50294871 8 16 C7.34 16 6.68 16 6 16 C5.01 13.03 4.02 10.06 3 7 C4.32 7 5.64 7 7 7 C7 6.34 7 5.68 7 5 C6.01 4.67 5.02 4.34 4 4 C4.66 4 5.32 4 6 4 C6 3.01 6 2.02 6 1 C4.02 1 2.04 1 0 1 C0 0.67 0 0.34 0 0 Z " fill="#F35A42" transform="translate(199,302)"/>
<path d="M0 0 C0.59006836 0.22341064 1.18013672 0.44682129 1.78808594 0.67700195 C1.45808594 1.99700195 1.12808594 3.31700195 0.78808594 4.67700195 C0.04558594 4.71825195 -0.69691406 4.75950195 -1.46191406 4.80200195 C-5.30837416 6.02587562 -6.07656742 8.34052282 -8.21191406 11.67700195 C-9.51128906 12.45043945 -9.51128906 12.45043945 -10.83691406 13.23950195 C-13.7976425 15.0315218 -14.00098416 16.5285842 -15.21191406 19.67700195 C-15.84484375 19.96704102 -16.47777344 20.25708008 -17.12988281 20.5559082 C-19.80136102 21.99439647 -20.30342988 23.28451195 -21.46191406 26.05200195 C-21.96464844 27.20829102 -21.96464844 27.20829102 -22.47753906 28.38793945 C-23.4155695 30.91113715 -23.4155695 30.91113715 -23.21191406 34.67700195 C-25.85191406 35.33700195 -28.49191406 35.99700195 -31.21191406 36.67700195 C-31.21191406 37.58450195 -31.21191406 38.49200195 -31.21191406 39.42700195 C-31.21191406 46.67700195 -31.21191406 46.67700195 -32.21191406 49.67700195 C-31.55191406 50.00700195 -30.89191406 50.33700195 -30.21191406 50.67700195 C-30.81003906 50.96575195 -31.40816406 51.25450195 -32.02441406 51.55200195 C-36.18283662 53.66116014 -36.18283662 53.66116014 -38.33691406 57.67700195 C-38.62566406 58.66700195 -38.91441406 59.65700195 -39.21191406 60.67700195 C-39.54191406 61.33700195 -39.87191406 61.99700195 -40.21191406 62.67700195 C-39.55191406 63.00700195 -38.89191406 63.33700195 -38.21191406 63.67700195 C-38.70691406 64.44012695 -39.20191406 65.20325195 -39.71191406 65.98950195 C-41.45559714 68.60063946 -41.45559714 68.60063946 -41.21191406 71.67700195 C-41.87191406 71.67700195 -42.53191406 71.67700195 -43.21191406 71.67700195 C-42.24989685 74.15076049 -41.29188417 76.5296886 -40.02441406 78.86450195 C-39.75628906 79.46262695 -39.48816406 80.06075195 -39.21191406 80.67700195 C-39.70691406 81.66700195 -39.70691406 81.66700195 -40.21191406 82.67700195 C-40.87191406 82.67700195 -41.53191406 82.67700195 -42.21191406 82.67700195 C-42.70691406 83.66700195 -42.70691406 83.66700195 -43.21191406 84.67700195 C-43.54191406 84.67700195 -43.87191406 84.67700195 -44.21191406 84.67700195 C-44.21191406 92.26700195 -44.21191406 99.85700195 -44.21191406 107.67700195 C-42.23191406 108.33700195 -40.25191406 108.99700195 -38.21191406 109.67700195 C-39.86191406 113.30700195 -41.51191406 116.93700195 -43.21191406 120.67700195 C-42.55191406 121.00700195 -41.89191406 121.33700195 -41.21191406 121.67700195 C-41.54191406 122.66700195 -41.87191406 123.65700195 -42.21191406 124.67700195 C-40.89191406 125.00700195 -39.57191406 125.33700195 -38.21191406 125.67700195 C-38.21191406 128.64700195 -38.21191406 131.61700195 -38.21191406 134.67700195 C-38.87191406 134.67700195 -39.53191406 134.67700195 -40.21191406 134.67700195 C-40.84757594 132.76384485 -41.46970941 130.84619307 -42.08691406 128.92700195 C-42.43496094 127.8596582 -42.78300781 126.79231445 -43.14160156 125.69262695 C-51.63744423 95.88696403 -46.60510015 62.38115317 -31.97363281 35.43481445 C-25.79396075 24.5778738 -18.12456165 15.43239335 -9.46191406 6.48950195 C-8.8114209 5.80436523 -8.16092773 5.11922852 -7.49072266 4.41333008 C-6.55607178 3.47070312 -6.55607178 3.47070312 -5.60253906 2.5090332 C-5.04598633 1.93902588 -4.48943359 1.36901855 -3.91601562 0.78173828 C-2.21191406 -0.32299805 -2.21191406 -0.32299805 0 0 Z " fill="#EB3E3B" transform="translate(174.2119140625,155.322998046875)"/>
<path d="M0 0 C8.25 0 16.5 0 25 0 C24.67 1.32 24.34 2.64 24 4 C24.66 4 25.32 4 26 4 C26 5.32 26 6.64 26 8 C25.01 8 24.02 8 23 8 C23 8.99 23 9.98 23 11 C23.99 11.33 24.98 11.66 26 12 C24.68 12.33 23.36 12.66 22 13 C22 13.66 22 14.32 22 15 C22.66 15 23.32 15 24 15 C25.64106664 18.17956662 26 19.42685308 26 23 C24.68 22.67 23.36 22.34 22 22 C22 20.68 22 19.36 22 18 C20.02 18 18.04 18 16 18 C16.67097672 13.80639551 18.8558394 10.59665648 21 7 C17.37 7 13.74 7 10 7 C10 7.66 10 8.32 10 9 C11.98 9 13.96 9 16 9 C15.46104623 12.7726764 14.00464642 14.68212991 11 17 C8.75 16.75 8.75 16.75 7 16 C7 14.35 7 12.7 7 11 C6.34 11 5.68 11 5 11 C4.67 8.69 4.34 6.38 4 4 C2.68 4.33 1.36 4.66 0 5 C0 3.35 0 1.7 0 0 Z " fill="#F87146" transform="translate(278,303)"/>
<path d="M0 0 C0.90105469 0.00902344 1.80210937 0.01804688 2.73046875 0.02734375 C3.41753906 0.03894531 4.10460937 0.05054688 4.8125 0.0625 C4.4825 1.0525 4.1525 2.0425 3.8125 3.0625 C3.27625 2.794375 2.74 2.52625 2.1875 2.25 C-1.61958029 1.94944103 -3.3942281 4.68524732 -6.1875 7.0625 C-7.1775 6.7325 -8.1675 6.4025 -9.1875 6.0625 C-9.5175 6.7225 -9.8475 7.3825 -10.1875 8.0625 C-10.5175 8.3925 -10.8475 8.7225 -11.1875 9.0625 C-10.5275 9.7225 -9.8675 10.3825 -9.1875 11.0625 C-9.5625 13.6875 -9.5625 13.6875 -10.1875 16.0625 C-11.1775 16.3925 -12.1675 16.7225 -13.1875 17.0625 C-13.5175 35.2125 -13.8475 53.3625 -14.1875 72.0625 C-13.1975 72.3925 -12.2075 72.7225 -11.1875 73.0625 C-10 75.125 -10 75.125 -9.1875 77.0625 C-9.991875 77.18625 -10.79625 77.31 -11.625 77.4375 C-12.8934375 77.746875 -12.8934375 77.746875 -14.1875 78.0625 C-14.5175 78.7225 -14.8475 79.3825 -15.1875 80.0625 C-27.0675 79.7325 -38.9475 79.4025 -51.1875 79.0625 C-51.1875 78.7325 -51.1875 78.4025 -51.1875 78.0625 C-39.6375 78.0625 -28.0875 78.0625 -16.1875 78.0625 C-16.25710938 71.03775391 -16.25710938 71.03775391 -16.328125 63.87109375 C-16.34857553 60.89515997 -16.367832 57.91931346 -16.3828125 54.94335938 C-16.406677 50.22499484 -16.43483631 45.5069423 -16.48925781 40.78881836 C-16.53288211 36.98272863 -16.55667181 33.1769737 -16.56700897 29.37065315 C-16.57437079 27.92222896 -16.58874672 26.47382204 -16.61042023 25.02554131 C-16.74367454 15.74786541 -16.38258441 9.89320326 -10.125 2.6875 C-6.88140985 -0.03293045 -4.06762542 -0.0528263 0 0 Z " fill="#E37A54" transform="translate(321.1875,223.9375)"/>
<path d="M0 0 C3.30669336 2.73692466 4.86780532 6.39995179 6.6875 10.1875 C7.00783203 10.84169922 7.32816406 11.49589844 7.65820312 12.16992188 C8.44428292 13.77727907 9.22288683 15.38828858 10 17 C6.42838592 17 4.32835619 15.98752749 1.0625 14.5625 C-8.36302375 10.46292276 -18.37524827 9.25347454 -28.4375 11.90625 C-37.52701398 15.52350556 -44.31953521 20.98551197 -51 28 C-54.38847145 26.87050952 -55.19694184 25.87716782 -57.4375 23.1875 C-59.85689832 20.33240495 -62.2971523 17.5947338 -65 15 C-62.5 16 -62.5 16 -60 17 C-58.6696875 17.433125 -58.6696875 17.433125 -57.3125 17.875 C-54.54247085 19.22258175 -54.23106146 20.27407819 -53 23 C-52.01 23.33 -51.02 23.66 -50 24 C-50 23.01 -50 22.02 -50 21 C-49.01 21 -48.02 21 -47 21 C-47 20.34 -47 19.68 -47 19 C-47.66 19 -48.32 19 -49 19 C-49 18.34 -49 17.68 -49 17 C-42.25 16 -42.25 16 -40 16 C-40.33 14.68 -40.66 13.36 -41 12 C-38.50968916 9.92474097 -36.70910026 8.99350443 -33.44140625 9.0234375 C-30.94661777 9.28530182 -28.47634651 9.60089949 -26 10 C-25.67 9.01 -25.34 8.02 -25 7 C-25 7.66 -25 8.32 -25 9 C-24.34 8.67 -23.68 8.34 -23 8 C-21.23132545 7.90316436 -19.45881697 7.87020618 -17.6875 7.875 C-16.74261719 7.87242187 -15.79773438 7.86984375 -14.82421875 7.8671875 C-12 8 -12 8 -9.26953125 8.5703125 C-6.97815902 9.24149307 -6.97815902 9.24149307 -5 8 C-4.01 8.33 -3.02 8.66 -2 9 C-2 9.66 -2 10.32 -2 11 C-1.34 10.67 -0.68 10.34 0 10 C0 8.68 0 7.36 0 6 C0 4 0 2 0 0 Z " fill="#EE794B" transform="translate(353,185)"/>
<path d="M0 0 C25.79834894 0.61291974 51.45114903 14.71898606 69 33 C69.78375 33.763125 70.5675 34.52625 71.375 35.3125 C87 51.30952381 87 51.30952381 87 56 C86.34 56 85.68 56 85 56 C85 55.34 85 54.68 85 54 C84.34 54 83.68 54 83 54 C83 53.34 83 52.68 83 52 C81.02 51.505 81.02 51.505 79 51 C78.67 49.35 78.34 47.7 78 46 C74.535 46.495 74.535 46.495 71 47 C71 44.33333333 71 41.66666667 71 39 C70.401875 38.731875 69.80375 38.46375 69.1875 38.1875 C66.97398302 36.9858765 65.73331856 35.8026513 64 34 C62.34466005 32.65263027 60.67987227 31.31665664 59 30 C59.33 28.68 59.66 27.36 60 26 C59.01 26 58.02 26 57 26 C57 25.34 57 24.68 57 24 C56.28070313 23.7421875 55.56140625 23.484375 54.8203125 23.21875 C51.85671624 21.93808236 49.51073063 20.35681322 46.875 18.5 C42.06836422 15.34320948 38.21568343 14.10564802 32.5078125 13.6796875 C30 13 30 13 27.6640625 10.61328125 C24.48862242 7.49837009 21.42764743 6.46154955 17.25 5.3125 C16.54423828 5.10536377 15.83847656 4.89822754 15.11132812 4.68481445 C10.11732831 3.24198875 5.10175131 2.00212972 0 1 C0 0.67 0 0.34 0 0 Z " fill="#EC835A" transform="translate(266,129)"/>
<path d="M0 0 C0.33 0 0.66 0 1 0 C1 19.8 1 39.6 1 60 C7.93 60 14.86 60 22 60 C16.12648663 72.67442358 8.5706624 83.7955189 -1 94 C-1.66 92.68 -2.32 91.36 -3 90 C-1.02 89.01 -1.02 89.01 1 88 C1 87.34 1 86.68 1 86 C1.99 86 2.98 86 4 86 C4.144375 85.360625 4.28875 84.72125 4.4375 84.0625 C5 82 5 82 6 81 C6.36760731 78.67182036 6.70241581 76.3381615 7 74 C9.475 73.505 9.475 73.505 12 73 C12 72.34 12 71.68 12 71 C12.66 71 13.32 71 14 71 C15.13357275 67.67485327 16.1469752 64.4120992 17 61 C9.08 61.495 9.08 61.495 1 62 C-1 58 -1 58 -1 56 C-1.66 55.67 -2.32 55.34 -3 55 C-2.67435562 54.43704224 -2.34871124 53.87408447 -2.01319885 53.29406738 C-0.8849997 50.7396183 -0.76336364 49.07338787 -0.78881836 46.29492188 C-0.79219711 45.36715942 -0.79557587 44.43939697 -0.79905701 43.48352051 C-0.81924644 41.99120911 -0.81924644 41.99120911 -0.83984375 40.46875 C-0.84504532 39.44068237 -0.85024689 38.41261475 -0.85560608 37.35339355 C-0.87341521 34.06878521 -0.90458303 30.784489 -0.9375 27.5 C-0.96513078 24.21554137 -0.98984527 20.93112759 -1.00868225 17.64660645 C-1.02092265 15.60319018 -1.03850993 13.55979745 -1.06199646 11.51647949 C-1.06852737 10.58871704 -1.07505829 9.66095459 -1.08178711 8.70507812 C-1.09004013 7.89107544 -1.09829315 7.07707275 -1.10679626 6.23840332 C-1.00132837 4.02784213 -0.6151177 2.12037613 0 0 Z " fill="#EB8D5E" transform="translate(339,242)"/>
<path d="M0 0 C0.99 0.33 1.98 0.66 3 1 C-12.38912113 15.43957962 -31.61631501 28.91766703 -53 32 C-52.74438677 29.6568787 -52.40729228 27.32156597 -52 25 C-51.34 24.67 -50.68 24.34 -50 24 C-50 24.66 -50 25.32 -50 26 C-46.535 25.505 -46.535 25.505 -43 25 C-43 25.66 -43 26.32 -43 27 C-41.68 27 -40.36 27 -39 27 C-39 26.34 -39 25.68 -39 25 C-37.68 25 -36.36 25 -35 25 C-35 24.34 -35 23.68 -35 23 C-33.35 23 -31.7 23 -30 23 C-29.731875 22.21625 -29.46375 21.4325 -29.1875 20.625 C-28 18 -28 18 -25 16 C-23.68 16 -22.36 16 -21 16 C-20.319375 15.319375 -20.319375 15.319375 -19.625 14.625 C-17.38796278 12.38796278 -14.99601793 11.86551629 -12 11 C-12 10.34 -12 9.68 -12 9 C-11.05125 8.7525 -10.1025 8.505 -9.125 8.25 C-5.93497726 7.3464282 -5.93497726 7.3464282 -4.875 5.0625 C-4.441875 4.0415625 -4.441875 4.0415625 -4 3 C-2.0625 1.1875 -2.0625 1.1875 0 0 Z " fill="#EC845D" transform="translate(334,336)"/>
<path d="M0 0 C0.33 0.66 0.66 1.32 1 2 C1.825 1.67386719 2.65 1.34773437 3.5 1.01171875 C7.41142642 -0.11892795 10.97182329 -0.25943173 15 -0.1875 C15.68578125 -0.18685547 16.3715625 -0.18621094 17.078125 -0.18554688 C24.53161878 -0.12153786 30.74860491 0.7760844 37 5 C37 5.66 37 6.32 37 7 C34.63765588 6.61897675 32.41332936 6.16783136 30.19140625 5.265625 C20.90556635 1.54426761 9.85010925 1.58102369 0.4140625 4.87890625 C-5.88311412 7.80332322 -11.4656772 11.8492579 -17 16 C-17 12.37 -17 8.74 -17 5 C-16.67 5 -16.34 5 -16 5 C-16 7.31 -16 9.62 -16 12 C-14.68 11.67 -13.36 11.34 -12 11 C-12.66 10.34 -13.32 9.68 -14 9 C-14 5.48283697 -13.17554415 4.62878252 -11 2 C-10.01 3.485 -10.01 3.485 -9 5 C-8.34 4.01 -7.68 3.02 -7 2 C-3.375 0.8125 -3.375 0.8125 0 0 Z " fill="#E96E4C" transform="translate(251,193)"/>
<path d="M0 0 C2.475 0.495 2.475 0.495 5 1 C5 2.65 5 4.3 5 6 C5.99 6.33 6.98 6.66 8 7 C7.773125 7.928125 7.54625 8.85625 7.3125 9.8125 C7.1578125 11.3903125 7.1578125 11.3903125 7 13 C8.2912354 14.62485459 8.2912354 14.62485459 10 16 C11.1875 18.6875 11.1875 18.6875 12 21 C13.65 21 15.3 21 17 21 C16.95875 22.11375 16.9175 23.2275 16.875 24.375 C16.58878141 28.04366025 16.58878141 28.04366025 19 30 C18.67 30.66 18.34 31.32 18 32 C18.66 32 19.32 32 20 32 C20.185625 32.598125 20.37125 33.19625 20.5625 33.8125 C21.93814031 36.37798779 21.93814031 36.37798779 25.5625 37.3125 C26.696875 37.869375 27.83125 38.42625 29 39 C29.9375 42.6875 29.9375 42.6875 30 46 C16.23307559 34.76169436 5.49374277 18.99721519 0 2 C0 1.34 0 0.68 0 0 Z " fill="#E5413E" transform="translate(135,291)"/>
<path d="M0 0 C3.30669336 2.73692466 4.86780532 6.39995179 6.6875 10.1875 C7.00783203 10.84169922 7.32816406 11.49589844 7.65820312 12.16992188 C8.44428292 13.77727907 9.22288683 15.38828858 10 17 C6.42838592 17 4.32835619 15.98752749 1.0625 14.5625 C-3.74729323 12.47050815 -7.86548965 10.96167858 -13.109375 10.68359375 C-13.86347656 10.64169922 -14.61757813 10.59980469 -15.39453125 10.55664062 C-16.56048828 10.49766602 -16.56048828 10.49766602 -17.75 10.4375 C-18.93916016 10.37272461 -18.93916016 10.37272461 -20.15234375 10.30664062 C-22.10137815 10.20097009 -24.05066748 10.10002034 -26 10 C-25.67 9.01 -25.34 8.02 -25 7 C-25 7.66 -25 8.32 -25 9 C-24.34 8.67 -23.68 8.34 -23 8 C-21.23132545 7.90316436 -19.45881697 7.87020618 -17.6875 7.875 C-16.74261719 7.87242187 -15.79773438 7.86984375 -14.82421875 7.8671875 C-12 8 -12 8 -9.26953125 8.5703125 C-6.97815902 9.24149307 -6.97815902 9.24149307 -5 8 C-4.01 8.33 -3.02 8.66 -2 9 C-2 9.66 -2 10.32 -2 11 C-1.34 10.67 -0.68 10.34 0 10 C0 8.68 0 7.36 0 6 C0 4 0 2 0 0 Z " fill="#E98754" transform="translate(353,185)"/>
<path d="M0 0 C0.66 0 1.32 0 2 0 C2 1.32 2 2.64 2 4 C2.66 4 3.32 4 4 4 C4.33 5.65 4.66 7.3 5 9 C6.32 9 7.64 9 9 9 C8.34 10.98 7.68 12.96 7 15 C10.63 15 14.26 15 18 15 C18 14.01 18 13.02 18 12 C16.02 12 14.04 12 12 12 C12.33 11.34 12.66 10.68 13 10 C15.97 10.495 15.97 10.495 19 11 C18.25 17.75 18.25 17.75 16 20 C16 19.01 16 18.02 16 17 C15.2575 17.185625 14.515 17.37125 13.75 17.5625 C11.05009037 17.99203108 9.55368923 17.85122974 7 17 C7 17.66 7 18.32 7 19 C6.34 19 5.68 19 5 19 C5 18.34 5 17.68 5 17 C3.906875 16.7525 2.81375 16.505 1.6875 16.25 C-2.05908409 14.97997149 -3.10595266 14.34243648 -5 11 C-2.25 10.75 -2.25 10.75 1 11 C3.203125 13.015625 3.203125 13.015625 5 15 C4.6390625 14.16855469 4.278125 13.33710938 3.90625 12.48046875 C3.4421875 11.39378906 2.978125 10.30710937 2.5 9.1875 C2.0359375 8.10855469 1.571875 7.02960938 1.09375 5.91796875 C0 3 0 3 0 0 Z " fill="#E57754" transform="translate(281,310)"/>
<path d="M0 0 C0.33 0 0.66 0 1 0 C1.10251672 5.12583611 1.03590199 9.94997778 0 15 C0.99 15 1.98 15 3 15 C3 12.03 3 9.06 3 6 C6.08669204 9.08669204 6.44855089 9.91927658 7 14 C7.66 14 8.32 14 9 14 C9.28875 12.865625 9.5775 11.73125 9.875 10.5625 C10.24625 9.386875 10.6175 8.21125 11 7 C11.66 6.67 12.32 6.34 13 6 C13.1953125 8.05078125 13.390625 10.1015625 13.5859375 12.15234375 C13.72257813 12.76207031 13.85921875 13.37179687 14 14 C14.66 14.33 15.32 14.66 16 15 C15.67 10.38 15.34 5.76 15 1 C15.33 1 15.66 1 16 1 C16.33 3.31 16.66 5.62 17 8 C17.66 8 18.32 8 19 8 C18.47731534 10.76276177 17.89130413 13.3260876 17 16 C16.113125 15.814375 15.22625 15.62875 14.3125 15.4375 C11.12314551 15.0162645 9.07900171 15.23024957 6 16 C3.66666667 16 1.33333333 16 -1 16 C-1.02685095 13.52076199 -1.04676547 11.0418116 -1.0625 8.5625 C-1.07506836 7.50192383 -1.07506836 7.50192383 -1.08789062 6.41992188 C-1.09653588 4.61306441 -1.05220011 2.80612397 -1 1 C-0.67 0.67 -0.34 0.34 0 0 Z " fill="#E15648" transform="translate(198,310)"/>
<path d="M0 0 C0.185625 0.61875 0.37125 1.2375 0.5625 1.875 C2.71437233 5.05602866 5.37533763 5.19451947 9 6 C9.33 7.98 9.66 9.96 10 12 C3.07 13.485 3.07 13.485 -4 15 C-3.67 13.68 -3.34 12.36 -3 11 C-3.165 10.34 -3.33 9.68 -3.5 9 C-4.10794833 6.56820668 -3.90123748 5.32819682 -3 3 C-1.4375 1.25 -1.4375 1.25 0 0 Z " fill="#FA4D39" transform="translate(196,297)"/>
<path d="M0 0 C1.60332791 -0.08121924 3.20784026 -0.13929134 4.8125 -0.1875 C6.15248047 -0.23970703 6.15248047 -0.23970703 7.51953125 -0.29296875 C10 0 10 0 11.87109375 1.1953125 C13 3 13 3 12.890625 5.41015625 C12.67921875 6.28542969 12.4678125 7.16070312 12.25 8.0625 C12.04890625 8.94035156 11.8478125 9.81820313 11.640625 10.72265625 C11 13 11 13 10 15 C9.01 15 8.02 15 7 15 C6.731875 13.88625 6.46375 12.7725 6.1875 11.625 C5.34190981 7.78159049 5.34190981 7.78159049 2 6 C2.66 6 3.32 6 4 6 C4 5.01 4 4.02 4 3 C2.68 3 1.36 3 0 3 C0 2.01 0 1.02 0 0 Z " fill="#F5563F" transform="translate(208,303)"/>
<path d="M0 0 C3.63 0.33 7.26 0.66 11 1 C11 1.66 11 2.32 11 3 C14.96 3 18.92 3 23 3 C23 3.66 23 4.32 23 5 C31.25 5 39.5 5 48 5 C48 4.34 48 3.68 48 3 C57.9 2.505 57.9 2.505 68 2 C58.54714164 6.72642918 47.61435517 6.35601447 37.25 6.3125 C35.93193359 6.30976074 34.61386719 6.30702148 33.25585938 6.30419922 C21.53686543 6.17845274 11.10625721 4.84704693 0 1 C0 0.67 0 0.34 0 0 Z " fill="#DE674E" transform="translate(213,366)"/>
<path d="M0 0 C0.33 0 0.66 0 1 0 C1.00808685 0.74724335 1.01617371 1.49448669 1.02450562 2.26437378 C1.10236909 9.29821944 1.18963436 16.3318704 1.28752708 23.36546135 C1.3375243 26.98172018 1.38385371 30.59794932 1.421875 34.21435547 C1.45868502 37.70283089 1.50503264 41.19105986 1.55806351 44.6793251 C1.58568111 46.66128773 1.60335779 48.64338072 1.62094116 50.62545776 C1.64081085 51.82655182 1.66068054 53.02764587 1.68115234 54.26513672 C1.69447601 55.32658905 1.70779968 56.38804138 1.7215271 57.48165894 C1.75321281 60.16995032 1.75321281 60.16995032 4 62 C2.68 61.67 1.36 61.34 0 61 C-0.12375 60.195625 -0.2475 59.39125 -0.375 58.5625 C-0.58125 57.716875 -0.7875 56.87125 -1 56 C-1.66 55.67 -2.32 55.34 -3 55 C-2.67435562 54.43704224 -2.34871124 53.87408447 -2.01319885 53.29406738 C-0.8849997 50.7396183 -0.76336364 49.07338787 -0.78881836 46.29492188 C-0.79219711 45.36715942 -0.79557587 44.43939697 -0.79905701 43.48352051 C-0.81924644 41.99120911 -0.81924644 41.99120911 -0.83984375 40.46875 C-0.84504532 39.44068237 -0.85024689 38.41261475 -0.85560608 37.35339355 C-0.87341521 34.06878521 -0.90458303 30.784489 -0.9375 27.5 C-0.96513078 24.21554137 -0.98984527 20.93112759 -1.00868225 17.64660645 C-1.02092265 15.60319018 -1.03850993 13.55979745 -1.06199646 11.51647949 C-1.06852737 10.58871704 -1.07505829 9.66095459 -1.08178711 8.70507812 C-1.09004013 7.89107544 -1.09829315 7.07707275 -1.10679626 6.23840332 C-1.00132837 4.02784213 -0.6151177 2.12037613 0 0 Z " fill="#DF7E54" transform="translate(339,242)"/>
<path d="M0 0 C6.89721599 0.16386474 13.22651732 1.43626608 19.8125 3.375 C20.52913818 3.58406982 21.24577637 3.79313965 21.98413086 4.00854492 C32.96847885 7.35894363 32.96847885 7.35894363 35.375 11.1875 C35.58125 11.785625 35.7875 12.38375 36 13 C33.3125 13.3125 33.3125 13.3125 30 13 C29.26652344 12.22398437 28.53304688 11.44796875 27.77734375 10.6484375 C24.53232206 7.55402864 21.46556425 6.47197846 17.25 5.3125 C16.54423828 5.10536377 15.83847656 4.89822754 15.11132812 4.68481445 C10.11732831 3.24198875 5.10175131 2.00212972 0 1 C0 0.67 0 0.34 0 0 Z " fill="#DC7455" transform="translate(266,129)"/>
<path d="M0 0 C0.66 0.33 1.32 0.66 2 1 C2 1.99 2 2.98 2 4 C2.99 4.33 3.98 4.66 5 5 C3.68 5.33 2.36 5.66 1 6 C1 6.66 1 7.32 1 8 C1.66 8 2.32 8 3 8 C4.64106664 11.17956662 5 12.42685308 5 16 C3.68 15.67 2.36 15.34 1 15 C1 13.68 1 12.36 1 11 C-0.98 11 -2.96 11 -5 11 C-4.32902328 6.80639551 -2.1441606 3.59665648 0 0 Z " fill="#F37649" transform="translate(299,310)"/>
<path d="M0 0 C6.17736004 4.09149821 10.98623468 8.72849169 15 15 C15 15.66 15 16.32 15 17 C14.34 17 13.68 17 13 17 C13 16.34 13 15.68 13 15 C12.34 15 11.68 15 11 15 C11 14.34 11 13.68 11 13 C9.68 12.67 8.36 12.34 7 12 C6.67 10.35 6.34 8.7 6 7 C3.69 7.33 1.38 7.66 -1 8 C-1 5.16032769 -0.59732819 2.76264289 0 0 Z " fill="#F5884E" transform="translate(338,168)"/>
<path d="M0 0 C0.99 0.495 0.99 0.495 2 1 C1.01 1.495 1.01 1.495 0 2 C0 1.34 0 0.68 0 0 Z M-3 2 C-1.35 2.33 0.3 2.66 2 3 C1.67 4.65 1.34 6.3 1 8 C1.66 8.33 2.32 8.66 3 9 C2.401875 9.28875 1.80375 9.5775 1.1875 9.875 C-3.01828632 12.02624872 -3.01828632 12.02624872 -5.1875 16.125 C-5.455625 17.07375 -5.72375 18.0225 -6 19 C-7.85537656 13.43387031 -5.35249922 7.20910541 -3 2 Z " fill="#FB3533" transform="translate(141,197)"/>
<path d="M0 0 C1.66666667 0.66666667 3.33333333 1.33333333 5 2 C6.3303125 2.433125 6.3303125 2.433125 7.6875 2.875 C10.45752915 4.22258175 10.76893854 5.27407819 12 8 C12.99 8.33 13.98 8.66 15 9 C15 8.01 15 7.02 15 6 C16.65 5.67 18.3 5.34 20 5 C18.55746343 8.36591866 16.66735273 10.51047079 14 13 C10.61152855 11.87050952 9.80305816 10.87716782 7.5625 8.1875 C5.14310168 5.33240495 2.7028477 2.5947338 0 0 Z " fill="#E07651" transform="translate(288,200)"/>
<path d="M0 0 C0.66 0.33 1.32 0.66 2 1 C0 3 0 3 -3.375 4.4375 C-6.3985325 5.74074677 -8.44647911 7.0139282 -11 9 C-11.66 9 -12.32 9 -13 9 C-15.59323076 11.91738461 -17.83527131 14.75290697 -20 18 C-20.99 17.34 -21.98 16.68 -23 16 C-18.14128412 10.33149814 -13.22067303 6.17663721 -6.5625 2.875 C-5.94745605 2.56812256 -5.33241211 2.26124512 -4.69873047 1.94506836 C-3.16524449 1.22263838 -1.58468263 0.60188477 0 0 Z " fill="#250803" transform="translate(325,196)"/>
<path d="M0 0 C0.433125 0.495 0.86625 0.99 1.3125 1.5 C2.99740483 3.33218192 2.99740483 3.33218192 6 3 C5.64363453 5.87637846 5.11154668 6.89445968 2.96875 8.921875 C2.1540625 9.52515625 1.339375 10.1284375 0.5 10.75 C-0.3146875 11.36359375 -1.129375 11.9771875 -1.96875 12.609375 C-4 14 -4 14 -5 14 C-5 10.37 -5 6.74 -5 3 C-4.67 3 -4.34 3 -4 3 C-4 5.31 -4 7.62 -4 10 C-2.68 9.67 -1.36 9.34 0 9 C-0.66 8.34 -1.32 7.68 -2 7 C-2 3.89448334 -1.4606285 2.64738916 0 0 Z " fill="#DF5842" transform="translate(239,195)"/>
<path d="M0 0 C2.75504918 0.08103086 4.51587351 0.59115634 6.6328125 2.37890625 C10.43166366 6.48056439 11.77249278 9.426073 12 15 C11.34 15 10.68 15 10 15 C9.67 13.02 9.34 11.04 9 9 C8.34 9 7.68 9 7 9 C6.34 8.01 5.68 7.02 5 6 C2.43717258 5.27034634 2.43717258 5.27034634 0 5 C0 3.35 0 1.7 0 0 Z " fill="#EB8356" transform="translate(327,225)"/>
<path d="M0 0 C-0.33 1.32 -0.66 2.64 -1 4 C-2.60875 4.0928125 -2.60875 4.0928125 -4.25 4.1875 C-8.866717 5.18778868 -9.14133104 6.40624473 -12 10 C-20.18428184 15 -20.18428184 15 -25 15 C-22.01295416 12.64964874 -19.01212249 10.31812947 -16 8 C-15.36964844 7.51402344 -14.73929688 7.02804688 -14.08984375 6.52734375 C-10.04360822 3.51340521 -5.22047471 0 0 0 Z " fill="#E4564C" transform="translate(199,139)"/>
<path d="M0 0 C0.97591583 3.38317487 0.85856655 5.5657338 0 9 C0.66 9.33 1.32 9.66 2 10 C1.505 10.763125 1.01 11.52625 0.5 12.3125 C-1.24368308 14.92363751 -1.24368308 14.92363751 -1 18 C-1.66 18 -2.32 18 -3 18 C-2.67 18.99 -2.34 19.98 -2 21 C-2.4375 23.1875 -2.4375 23.1875 -3 25 C-3.66 25 -4.32 25 -5 25 C-4.64234286 16.23739998 -2.61954449 8.34599058 0 0 Z " fill="#E43C3A" transform="translate(134,209)"/>
<path d="M0 0 C2.64 0 5.28 0 8 0 C7.34 1.32 6.68 2.64 6 4 C6.99 4 7.98 4 9 4 C9 4.66 9 5.32 9 6 C10.32 6.33 11.64 6.66 13 7 C13 7.66 13 8.32 13 9 C13.556875 9.12375 14.11375 9.2475 14.6875 9.375 C17.2618003 10.07075684 19.59880886 10.83185296 22 12 C22.33 12.99 22.66 13.98 23 15 C17.71726883 13.54806923 13.72175328 11.10663067 9.25 8.0625 C8.57839844 7.61970703 7.90679687 7.17691406 7.21484375 6.72070312 C4.05319234 4.59498359 2.15876454 3.23814682 0 0 Z " fill="#DC4F48" transform="translate(174,345)"/>
<path d="M0 0 C0.33 0 0.66 0 1 0 C1.33 2.31 1.66 4.62 2 7 C2.66 7 3.32 7 4 7 C3.47731534 9.76276177 2.89130413 12.3260876 2 15 C-0.76276177 14.47731534 -3.3260876 13.89130413 -6 13 C-5.40138258 10.64828869 -4.73075648 8.3140622 -4 6 C-3.34 5.67 -2.68 5.34 -2 5 C-1.8046875 7.05078125 -1.609375 9.1015625 -1.4140625 11.15234375 C-1.27742187 11.76207031 -1.14078125 12.37179687 -1 13 C-0.34 13.33 0.32 13.66 1 14 C0.67 9.38 0.34 4.76 0 0 Z " fill="#D56456" transform="translate(213,311)"/>
<path d="M0 0 C1.32 0 2.64 0 4 0 C3.67 2.31 3.34 4.62 3 7 C3.66 7 4.32 7 5 7 C5 5.02 5 3.04 5 1 C5.66 0.67 6.32 0.34 7 0 C7 4.62 7 9.24 7 14 C4 13 4 13 2.83203125 10.8203125 C2.49558594 9.93085938 2.15914062 9.04140625 1.8125 8.125 C1.29623047 6.79855469 1.29623047 6.79855469 0.76953125 5.4453125 C0 3 0 3 0 0 Z " fill="#DF6450" transform="translate(224,310)"/>
<path d="M0 0 C0.33 0.66 0.66 1.32 1 2 C4.465 1.505 4.465 1.505 8 1 C8 1.99 8 2.98 8 4 C8.66 4.33 9.32 4.66 10 5 C8.56656 5.53190541 7.12804633 6.05015258 5.6875 6.5625 C4.48673828 6.99755859 4.48673828 6.99755859 3.26171875 7.44140625 C1 8 1 8 -2 7 C-1.34 4.69 -0.68 2.38 0 0 Z " fill="#F2714B" transform="translate(283,360)"/>
<path d="M0 0 C0.66 0 1.32 0 2 0 C2 2.97 2 5.94 2 9 C2.66 9.33 3.32 9.66 4 10 C3.67 10.99 3.34 11.98 3 13 C4.32 13.33 5.64 13.66 7 14 C7 16.97 7 19.94 7 23 C6.34 23 5.68 23 5 23 C2.41540233 15.33035667 0.36620268 8.11138929 0 0 Z " fill="#D44241" transform="translate(129,267)"/>
<path d="M0 0 C-0.99 0.495 -0.99 0.495 -2 1 C-2.2475 1.61875 -2.495 2.2375 -2.75 2.875 C-4.52059982 5.8850197 -6.86620246 6.63747933 -10 8 C-10.33 7.01 -10.66 6.02 -11 5 C-11.66 5 -12.32 5 -13 5 C-13 4.34 -13 3.68 -13 3 C-8.37802694 0.78145293 -5.23175837 -0.38281159 0 0 Z " fill="#FB5039" transform="translate(212,135)"/>
<path d="M0 0 C0.66 0 1.32 0 2 0 C2 4.95 2 9.9 2 15 C0.68 14.67 -0.64 14.34 -2 14 C-2.33 12.35 -2.66 10.7 -3 9 C-2.34 8.67 -1.68 8.34 -1 8 C-1.020625 6.865625 -1.04125 5.73125 -1.0625 4.5625 C-1 1 -1 1 0 0 Z " fill="#FB4C35" transform="translate(195,313)"/>
<path d="M0 0 C0.33 0.66 0.66 1.32 1 2 C3.31 2 5.62 2 8 2 C8 2.33 8 2.66 8 3 C6.41701974 3.4803318 4.83360022 3.95921612 3.25 4.4375 C1.92742187 4.83775391 1.92742187 4.83775391 0.578125 5.24609375 C-1.60565835 5.88468494 -3.78835498 6.46775833 -6 7 C-6 6.34 -6 5.68 -6 5 C-6.66 4.67 -7.32 4.34 -8 4 C-7.67 3.34 -7.34 2.68 -7 2 C-4.6859378 1.26924352 -2.35171131 0.59861742 0 0 Z " fill="#EA6146" transform="translate(251,193)"/>
<path d="M0 0 C2.79163712 2.40768703 3.89717557 4.76146616 5.1875 8.1875 C5.53167969 9.08855469 5.87585938 9.98960937 6.23046875 10.91796875 C6.48441406 11.60503906 6.73835938 12.29210937 7 13 C3.64405806 11.7367158 1.36709704 10.74084921 -1 8 C-0.34 7.01 0.32 6.02 1 5 C0.34 4.01 -0.32 3.02 -1 2 C-0.67 1.34 -0.34 0.68 0 0 Z " fill="#E18C5C" transform="translate(356,190)"/>
<path d="M0 0 C1.32 0.99 2.64 1.98 4 3 C3.67 4.32 3.34 5.64 3 7 C2.34 7 1.68 7 1 7 C0.67 7.66 0.34 8.32 0 9 C-0.66 9 -1.32 9 -2 9 C-2 7.02 -2 5.04 -2 3 C-1.34 3 -0.68 3 0 3 C0 2.01 0 1.02 0 0 Z " fill="#FB3231" transform="translate(131,231)"/>
<path d="M0 0 C1.5 1.1875 1.5 1.1875 3 3 C3.04165365 4.66614608 3.04165365 6.33385392 3 8 C3.99 9.485 3.99 9.485 5 11 C3.68 11.33 2.36 11.66 1 12 C-1.125 7.375 -1.125 7.375 0 4 C0 2.68 0 1.36 0 0 Z " fill="#F68B50" transform="translate(353,185)"/>
<path d="M0 0 C6.37931034 0.49071618 6.37931034 0.49071618 9.4375 3 C11 5 11 5 11 6 C8.3125 6.375 8.3125 6.375 5 6 C2.93601924 4.176017 1.60958947 2.27236161 0 0 Z " fill="#F3744B" transform="translate(291,136)"/>
<path d="M0 0 C2.475 0.495 2.475 0.495 5 1 C5 2.65 5 4.3 5 6 C5.99 6.33 6.98 6.66 8 7 C7.01 8.485 7.01 8.485 6 10 C6 9.01 6 8.02 6 7 C4.68 7 3.36 7 2 7 C1.34 4.69 0.68 2.38 0 0 Z " fill="#ED3936" transform="translate(135,291)"/>
<path d="M0 0 C0.99 0.33 1.98 0.66 3 1 C-0.3 3.97 -3.6 6.94 -7 10 C-7.66 9.34 -8.32 8.68 -9 8 C-8.01 7.67 -7.02 7.34 -6 7 C-5.690625 6.38125 -5.38125 5.7625 -5.0625 5.125 C-3.76942623 2.53885246 -2.493836 1.43584497 0 0 Z " fill="#F28F69" transform="translate(334,336)"/>
<path d="M0 0 C2.97 0.99 5.94 1.98 9 3 C9 3.99 9 4.98 9 6 C7.35 5.67 5.7 5.34 4 5 C3.67 5.66 3.34 6.32 3 7 C3 6.01 3 5.02 3 4 C0.525 3.01 0.525 3.01 -2 2 C-1.34 1.34 -0.68 0.68 0 0 Z " fill="#F96B45" transform="translate(264,128)"/>
<path d="M0 0 C1.32 0.66 2.64 1.32 4 2 C3.67 3.65 3.34 5.3 3 7 C1.68 7.33 0.36 7.66 -1 8 C-1.04241723 5.66705225 -1.04092937 3.33297433 -1 1 C-0.67 0.67 -0.34 0.34 0 0 Z " fill="#FD7844" transform="translate(308,233)"/>
<path d="M0 0 C1.66666667 0.66666667 3.33333333 1.33333333 5 2 C5.9075 2.2475 6.815 2.495 7.75 2.75 C8.86375 3.36875 8.86375 3.36875 10 4 C10.8125 7.125 10.8125 7.125 11 10 C7.19364503 6.79239749 3.45436433 3.59253891 0 0 Z " fill="#D76D4C" transform="translate(288,200)"/>
<path d="M0 0 C0.66 0.99 1.32 1.98 2 3 C0.39967863 3.84069415 -1.20541171 4.67231505 -2.8125 5.5 C-4.15248047 6.19609375 -4.15248047 6.19609375 -5.51953125 6.90625 C-8 8 -8 8 -11 8 C-9.5433323 6.85204994 -8.08461063 5.70670581 -6.625 4.5625 C-5.40683594 3.60537109 -5.40683594 3.60537109 -4.1640625 2.62890625 C-2 1 -2 1 0 0 Z " fill="#DE4B3E" transform="translate(185,146)"/>
<path d="M0 0 C0.99 0 1.98 0 3 0 C3 0.66 3 1.32 3 2 C3.99 2 4.98 2 6 2 C6.33 1.34 6.66 0.68 7 0 C7.66 0.33 8.32 0.66 9 1 C8.67 2.32 8.34 3.64 8 5 C4.62537285 4.45276317 2.91765 3.9451 0 2 C0 1.34 0 0.68 0 0 Z " fill="#FB4A39" transform="translate(188,352)"/>
<path d="M0 0 C2.89932357 2.39509338 3.50168276 4.31245243 4 8 C5.32 8.33 6.64 8.66 8 9 C6.35 9.33 4.7 9.66 3 10 C3 9.01 3 8.02 3 7 C2.01 7.33 1.02 7.66 0 8 C0 5.36 0 2.72 0 0 Z " fill="#D1594B" transform="translate(201,316)"/>
<path d="M0 0 C0.33 0 0.66 0 1 0 C1 4.62 1 9.24 1 14 C-0.32 14.33 -1.64 14.66 -3 15 C-2.34 14.67 -1.68 14.34 -1 14 C-1.33 12.35 -1.66 10.7 -2 9 C-1.34 9 -0.68 9 0 9 C0 6.03 0 3.06 0 0 Z " fill="#D66D51" transform="translate(259,311)"/>
<path d="M0 0 C1.66611905 -0.042721 3.33382885 -0.04063832 5 0 C6 1 6 1 6.0625 4.0625 C6.041875 5.031875 6.02125 6.00125 6 7 C5.67 5.68 5.34 4.36 5 3 C3.35 3.66 1.7 4.32 0 5 C0 3.35 0 1.7 0 0 Z " fill="#DF614C" transform="translate(234,318)"/>
<path d="M0 0 C1.65 0 3.3 0 5 0 C5.33 0.99 5.66 1.98 6 3 C7.49985609 4.66710346 7.49985609 4.66710346 9 6 C7.35 6 5.7 6 4 6 C4 5.01 4 4.02 4 3 C2.68 3 1.36 3 0 3 C0 2.01 0 1.02 0 0 Z " fill="#FB5136" transform="translate(208,303)"/>
<path d="M0 0 C0.90105469 0.00902344 1.80210937 0.01804688 2.73046875 0.02734375 C3.41753906 0.03894531 4.10460937 0.05054688 4.8125 0.0625 C4.4825 1.0525 4.1525 2.0425 3.8125 3.0625 C2.595625 2.835625 1.37875 2.60875 0.125 2.375 C-3.94362006 1.83491769 -5.80549453 2.67520202 -9.1875 5.0625 C-9.8475 4.7325 -10.5075 4.4025 -11.1875 4.0625 C-7.77628592 0.32640839 -4.93646556 -0.06410994 0 0 Z " fill="#DF7B50" transform="translate(321.1875,223.9375)"/>
<path d="M0 0 C-1.52708963 3.43595166 -3.59927045 6.11912454 -6 9 C-6.99 8.34 -7.98 7.68 -9 7 C-7.88121617 5.82737096 -6.75476949 4.66204862 -5.625 3.5 C-4.68527344 2.52546875 -4.68527344 2.52546875 -3.7265625 1.53125 C-2 0 -2 0 0 0 Z " fill="#1E0100" transform="translate(311,205)"/>
<path d="M0 0 C5.75 1.875 5.75 1.875 8 3 C7.67 3.66 7.34 4.32 7 5 C6.01 5.33 5.02 5.66 4 6 C3.67 5.34 3.34 4.68 3 4 C1.68 4.33 0.36 4.66 -1 5 C-0.67 3.35 -0.34 1.7 0 0 Z " fill="#FA6E43" transform="translate(276,323)"/>
<path d="M0 0 C0.99 0.33 1.98 0.66 3 1 C3 3.97 3 6.94 3 10 C2.34 10 1.68 10 1 10 C-0.60725635 6.78548731 -0.05748185 3.56387464 0 0 Z " fill="#EF3837" transform="translate(133,280)"/>
<path d="M0 0 C0 0.66 0 1.32 0 2 C-1.95927063 3.7143618 -3.95880212 5.38405168 -6 7 C-6.99 6.34 -7.98 5.68 -9 5 C-7.87926138 4.16094435 -6.75325453 3.32892169 -5.625 2.5 C-4.99851563 2.0359375 -4.37203125 1.571875 -3.7265625 1.09375 C-2 0 -2 0 0 0 Z " fill="#230502" transform="translate(249,199)"/>
<path d="M0 0 C3 0 3 0 4.82421875 1.64453125 C5.43910156 2.35996094 6.05398438 3.07539063 6.6875 3.8125 C7.31011719 4.52019531 7.93273437 5.22789062 8.57421875 5.95703125 C10 8 10 8 10 11 C8.65787938 9.90653119 7.32652025 8.7998425 6 7.6875 C4.88625 6.76517578 4.88625 6.76517578 3.75 5.82421875 C2 4 2 4 2 1 C1.34 0.67 0.68 0.34 0 0 Z " fill="#E98D63" transform="translate(334,163)"/>
<path d="M0 0 C2.64 0 5.28 0 8 0 C8 0.99 8 1.98 8 3 C6 4.6875 6 4.6875 4 6 C4 4.68 4 3.36 4 2 C2.68 1.34 1.36 0.68 0 0 Z " fill="#FC4A3C" transform="translate(192,194)"/>
<path d="M0 0 C0.99 0.33 1.98 0.66 3 1 C2.67 2.65 2.34 4.3 2 6 C1.34 6 0.68 6 0 6 C-0.33 6.66 -0.66 7.32 -1 8 C-1.04241723 5.66705225 -1.04092937 3.33297433 -1 1 C-0.67 0.67 -0.34 0.34 0 0 Z " fill="#FB884E" transform="translate(347,315)"/>
<path d="M0 0 C3 1 3 1 4.1875 3.0625 C4.455625 3.701875 4.72375 4.34125 5 5 C3.35 5.33 1.7 5.66 0 6 C-1 3 -1 3 0 0 Z " fill="#FA7A47" transform="translate(307,296)"/>
<path d="M0 0 C2.31 0 4.62 0 7 0 C7 0.66 7 1.32 7 2 C7.99 1.67 8.98 1.34 10 1 C9.67 1.99 9.34 2.98 9 4 C2.25 2.25 2.25 2.25 0 0 Z " fill="#FA5038" transform="translate(201,360)"/>
<path d="M0 0 C1.32 0.33 2.64 0.66 4 1 C4 1.99 4 2.98 4 4 C1.69 4.33 -0.62 4.66 -3 5 C-2.01 3.35 -1.02 1.7 0 0 Z " fill="#F87A49" transform="translate(308,352)"/>
<path d="M0 0 C2.64 0 5.28 0 8 0 C7.34 1.32 6.68 2.64 6 4 C4.125 3.6875 4.125 3.6875 2 3 C1.34 2.01 0.68 1.02 0 0 Z " fill="#E94A41" transform="translate(174,345)"/>
<path d="M0 0 C0.66 0.66 1.32 1.32 2 2 C1.34 3.98 0.68 5.96 0 8 C-2 6 -2 6 -2.125 3.375 C-2.08375 2.59125 -2.0425 1.8075 -2 1 C-1.34 0.67 -0.68 0.34 0 0 Z " fill="#FB3F32" transform="translate(166,329)"/>
<path d="M0 0 C1.98 0 3.96 0 6 0 C6.33 0.99 6.66 1.98 7 3 C4.36 3 1.72 3 -1 3 C-0.67 2.01 -0.34 1.02 0 0 Z " fill="#D96655" transform="translate(248,321)"/>
<path d="M0 0 C1.32 0 2.64 0 4 0 C4.33 0.99 4.66 1.98 5 3 C3.02 3.99 3.02 3.99 1 5 C0.67 3.35 0.34 1.7 0 0 Z " fill="#DC7558" transform="translate(262,312)"/>
<path d="M0 0 C-0.33 1.98 -0.66 3.96 -1 6 C-1.66 6 -2.32 6 -3 6 C-3.33 6.66 -3.66 7.32 -4 8 C-4.33 6.02 -4.66 4.04 -5 2 C-2 0 -2 0 0 0 Z " fill="#FA3432" transform="translate(136,272)"/>
<path d="M0 0 C0.33 0 0.66 0 1 0 C1.33 2.31 1.66 4.62 2 7 C-0.475 8.485 -0.475 8.485 -3 10 C-2.01 6.7 -1.02 3.4 0 0 Z " fill="#DE3D3C" transform="translate(138,199)"/>
<path d="M0 0 C2.97 0.495 2.97 0.495 6 1 C6 2.32 6 3.64 6 5 C2.83884224 3.63016497 2.0072908 3.0109362 0 0 Z " fill="#E8463D" transform="translate(167,339)"/>
<path d="M0 0 C1.32 0 2.64 0 4 0 C4.33 2.31 4.66 4.62 5 7 C1.18461538 4.53846154 1.18461538 4.53846154 0.25 1.8125 C0.1675 1.214375 0.085 0.61625 0 0 Z " fill="#F04140" transform="translate(160,330)"/>
<path d="M0 0 C1.98 0 3.96 0 6 0 C5.67 1.32 5.34 2.64 5 4 C4.01 4 3.02 4 2 4 C1.34 2.68 0.68 1.36 0 0 Z " fill="#F58161" transform="translate(276,321)"/>
<path d="M0 0 C0.99 0 1.98 0 3 0 C3.33 2.97 3.66 5.94 4 9 C1.49701566 6.06171403 0.53069061 3.82097239 0 0 Z " fill="#E34C4B" transform="translate(138,298)"/>
<path d="M0 0 C0.33 0 0.66 0 1 0 C2.28571429 7.42857143 2.28571429 7.42857143 1 11 C0.34 11 -0.32 11 -1 11 C-0.67 7.37 -0.34 3.74 0 0 Z " fill="#D63F3E" transform="translate(130,223)"/>
<path d="M0 0 C1.65 0.99 3.3 1.98 5 3 C4.67 3.66 4.34 4.32 4 5 C2.35 4.67 0.7 4.34 -1 4 C-0.67 2.68 -0.34 1.36 0 0 Z " fill="#FD7F47" transform="translate(328,226)"/>
<path d="M0 0 C0.66 0.33 1.32 0.66 2 1 C1.01 2.485 1.01 2.485 0 4 C-0.33 4.99 -0.66 5.98 -1 7 C-1.99 7 -2.98 7 -4 7 C-4.33 6.01 -4.66 5.02 -5 4 C-4.01 4 -3.02 4 -2 4 C-1.34 2.68 -0.68 1.36 0 0 Z " fill="#F94A38" transform="translate(191,143)"/>
<path d="M0 0 C0.33 0.66 0.66 1.32 1 2 C0.06421005 4.35981813 -0.93347808 6.69631264 -2 9 C-2.66 9 -3.32 9 -4 9 C-2.94124926 5.59687262 -1.99097846 2.98646769 0 0 Z " fill="#DB4244" transform="translate(143,190)"/>
<path d="M0 0 C0 0.66 0 1.32 0 2 C-3.13498292 3.85776765 -5.37471432 4.20140476 -9 4 C-3.7826087 0 -3.7826087 0 0 0 Z " fill="#E05844" transform="translate(209,135)"/>
<path d="M0 0 C2 3 2 3 2 5 C0.68 5 -0.64 5 -2 5 C-1.34 3.35 -0.68 1.7 0 0 Z " fill="#C27668" transform="translate(251,314)"/>
<path d="M0 0 C2 3 2 3 2 5 C0.68 5 -0.64 5 -2 5 C-1.34 3.35 -0.68 1.7 0 0 Z " fill="#C47369" transform="translate(222,314)"/>
<path d="M0 0 C0.66 0 1.32 0 2 0 C2.33 1.32 2.66 2.64 3 4 C1.68 4 0.36 4 -1 4 C-0.67 2.68 -0.34 1.36 0 0 Z " fill="#C2735E" transform="translate(278,315)"/>
<path d="" fill="#FFFFFF" transform="translate(0,0)"/>
<path d="" fill="#FFFFFF" transform="translate(0,0)"/>
<path d="" fill="#FFFFFF" transform="translate(0,0)"/>
<path d="" fill="#FFFFFF" transform="translate(0,0)"/>
<path d="" fill="#FFFFFF" transform="translate(0,0)"/>
<path d="" fill="#FFFFFF" transform="translate(0,0)"/>
<path d="" fill="#FFFFFF" transform="translate(0,0)"/>
<path d="" fill="#FFFFFF" transform="translate(0,0)"/>
<path d="" fill="#FFFFFF" transform="translate(0,0)"/>
<path d="" fill="#FFFFFF" transform="translate(0,0)"/>
<path d="" fill="#FFFFFF" transform="translate(0,0)"/>
<path d="" fill="#FFFFFF" transform="translate(0,0)"/>
<path d="" fill="#FFFFFF" transform="translate(0,0)"/>
<path d="" fill="#FFFFFF" transform="translate(0,0)"/>
<path d="" fill="#FFFFFF" transform="translate(0,0)"/>
<path d="" fill="#FFFFFF" transform="translate(0,0)"/>
<path d="" fill="#FFFFFF" transform="translate(0,0)"/>
<path d="" fill="#FFFFFF" transform="translate(0,0)"/>
<path d="" fill="#FFFFFF" transform="translate(0,0)"/>
<path d="" fill="#FFFFFF" transform="translate(0,0)"/>
<path d="" fill="#FFFFFF" transform="translate(0,0)"/>
<path d="" fill="#FFFFFF" transform="translate(0,0)"/>
<path d="" fill="#FFFFFF" transform="translate(0,0)"/>
<path d="" fill="#FFFFFF" transform="translate(0,0)"/>
<path d="" fill="#FFFFFF" transform="translate(0,0)"/>
<path d="" fill="#FFFFFF" transform="translate(0,0)"/>
<path d="" fill="#FFFFFF" transform="translate(0,0)"/>
<path d="" fill="#FFFFFF" transform="translate(0,0)"/>
<path d="" fill="#FFFFFF" transform="translate(0,0)"/>
<path d="" fill="#FFFFFF" transform="translate(0,0)"/>
<path d="" fill="#FFFFFF" transform="translate(0,0)"/>
<path d="" fill="#FFFFFF" transform="translate(0,0)"/>
<path d="" fill="#FFFFFF" transform="translate(0,0)"/>
<path d="" fill="#FFFFFF" transform="translate(0,0)"/>
<path d="" fill="#FFFFFF" transform="translate(0,0)"/>
<path d="" fill="#FFFFFF" transform="translate(0,0)"/>
<path d="" fill="#FFFFFF" transform="translate(0,0)"/>
<path d="" fill="#FFFFFF" transform="translate(0,0)"/>
<path d="" fill="#FFFFFF" transform="translate(0,0)"/>
<path d="" fill="#FFFFFF" transform="translate(0,0)"/>
<path d="" fill="#FFFFFF" transform="translate(0,0)"/>
<path d="" fill="#FFFFFF" transform="translate(0,0)"/>
<path d="" fill="#FFFFFF" transform="translate(0,0)"/>
<path d="" fill="#FFFFFF" transform="translate(0,0)"/>
<path d="" fill="#FFFFFF" transform="translate(0,0)"/>
<path d="" fill="#FFFFFF" transform="translate(0,0)"/>
<path d="" fill="#FFFFFF" transform="translate(0,0)"/>
<path d="" fill="#FFFFFF" transform="translate(0,0)"/>
</svg>
